%TF.GenerationSoftware,KiCad,Pcbnew,(6.0.2)*%
%TF.CreationDate,2022-12-01T20:05:35+01:00*%
%TF.ProjectId,nightUSB,6e696768-7455-4534-922e-6b696361645f,rev?*%
%TF.SameCoordinates,Original*%
%TF.FileFunction,Copper,L2,Bot*%
%TF.FilePolarity,Positive*%
%FSLAX46Y46*%
G04 Gerber Fmt 4.6, Leading zero omitted, Abs format (unit mm)*
G04 Created by KiCad (PCBNEW (6.0.2)) date 2022-12-01 20:05:35*
%MOMM*%
%LPD*%
G01*
G04 APERTURE LIST*
%TA.AperFunction,SMDPad,CuDef*%
%ADD10R,1.000000X1.450000*%
%TD*%
%TA.AperFunction,SMDPad,CuDef*%
%ADD11R,1.020000X1.470000*%
%TD*%
%TA.AperFunction,ComponentPad*%
%ADD12C,1.650000*%
%TD*%
%TA.AperFunction,ComponentPad*%
%ADD13R,1.650000X1.650000*%
%TD*%
%TA.AperFunction,ComponentPad*%
%ADD14C,1.550000*%
%TD*%
%TA.AperFunction,SMDPad,CuDef*%
%ADD15R,1.200000X1.000000*%
%TD*%
%TA.AperFunction,SMDPad,CuDef*%
%ADD16R,1.450000X1.000000*%
%TD*%
%TA.AperFunction,SMDPad,CuDef*%
%ADD17R,1.470000X1.020000*%
%TD*%
%TA.AperFunction,ViaPad*%
%ADD18C,0.400000*%
%TD*%
%TA.AperFunction,Conductor*%
%ADD19C,0.150000*%
%TD*%
G04 APERTURE END LIST*
D10*
%TO.P,R2,1*%
%TO.N,Net-(U1-Pad6)*%
X90950000Y-65800000D03*
%TO.P,R2,2*%
%TO.N,Net-(R2-Pad2)*%
X92850000Y-65800000D03*
%TD*%
D11*
%TO.P,C3,1*%
%TO.N,GND*%
X91250000Y-73050000D03*
%TO.P,C3,2*%
%TO.N,+5V*%
X89650000Y-73050000D03*
%TD*%
D12*
%TO.P,J3,5,5*%
%TO.N,GND*%
X98500000Y-76160000D03*
%TO.P,J3,4,4*%
%TO.N,/RB7*%
X98500000Y-73620000D03*
%TO.P,J3,3,3*%
%TO.N,/RB6*%
X98500000Y-71080000D03*
%TO.P,J3,2,2*%
%TO.N,/RB5*%
X98500000Y-68540000D03*
D13*
%TO.P,J3,1,1*%
%TO.N,/RB4*%
X98500000Y-66000000D03*
%TD*%
D14*
%TO.P,J1,7*%
%TO.N,N/C*%
X89460000Y-68000000D03*
%TO.P,J1,8*%
X94540000Y-66984000D03*
%TO.P,J1,9*%
X94540000Y-69016000D03*
%TD*%
D12*
%TO.P,J4,5,5*%
%TO.N,+5V*%
X85500000Y-76160000D03*
%TO.P,J4,4,4*%
%TO.N,/RC7*%
X85500000Y-73620000D03*
%TO.P,J4,3,3*%
%TO.N,/RC6*%
X85500000Y-71080000D03*
%TO.P,J4,2,2*%
%TO.N,/RC1*%
X85500000Y-68540000D03*
D13*
%TO.P,J4,1,1*%
%TO.N,/RC0*%
X85500000Y-66000000D03*
%TD*%
D11*
%TO.P,C4,1*%
%TO.N,GND*%
X92650000Y-73050000D03*
%TO.P,C4,2*%
%TO.N,Net-(C4-Pad2)*%
X94250000Y-73050000D03*
%TD*%
D15*
%TO.P,Y1,4,GND_2*%
%TO.N,GND*%
X92750000Y-75100000D03*
%TO.P,Y1,3,CRYSTAL_2*%
%TO.N,/Crystal2*%
X91050000Y-75100000D03*
%TO.P,Y1,2,GND_1*%
%TO.N,GND*%
X91050000Y-76400000D03*
%TO.P,Y1,1,CRYSTAL_1*%
%TO.N,/Cyrstal1*%
X92750000Y-76400000D03*
%TD*%
D16*
%TO.P,R1,1*%
%TO.N,unconnected-(R1-Pad1)*%
X91950000Y-71000000D03*
%TO.P,R1,2*%
%TO.N,/MCLR*%
X91950000Y-69100000D03*
%TD*%
D17*
%TO.P,C2,1*%
%TO.N,GND*%
X89200000Y-76700000D03*
%TO.P,C2,2*%
%TO.N,/Crystal2*%
X89200000Y-75100000D03*
%TD*%
%TO.P,C1,1*%
%TO.N,/Cyrstal1*%
X94700000Y-76700000D03*
%TO.P,C1,2*%
%TO.N,GND*%
X94700000Y-75100000D03*
%TD*%
D18*
%TO.N,/PGD*%
X96900000Y-78350000D03*
%TO.N,Net-(R2-Pad2)*%
X93500000Y-65950000D03*
%TO.N,/PGD*%
X92562121Y-67005352D03*
%TO.N,Net-(U1-Pad6)*%
X87100000Y-71800000D03*
%TO.N,+5V*%
X87500000Y-70350000D03*
%TO.N,/MCLR*%
X87400000Y-73000000D03*
%TO.N,+5V*%
X86825500Y-66725166D03*
%TO.N,GND*%
X93950000Y-71450000D03*
%TO.N,/PGC*%
X93450000Y-80350000D03*
X96350000Y-79500000D03*
X96350000Y-78100000D03*
X95500000Y-72375000D03*
%TO.N,/PGD*%
X90700000Y-84762500D03*
X97050000Y-79750000D03*
%TO.N,GND*%
X95550000Y-77600000D03*
%TO.N,Net-(U1-Pad7)*%
X86800000Y-74750000D03*
%TO.N,/Crystal2*%
X90750000Y-74350000D03*
%TO.N,/Cyrstal1*%
X92900000Y-77400000D03*
%TO.N,Net-(U1-Pad14)*%
X87400000Y-66300000D03*
X87250000Y-69200000D03*
%TO.N,GND*%
X92650000Y-73050000D03*
%TO.N,/RB7*%
X87750000Y-78674500D03*
%TO.N,Net-(U1-Pad7)*%
X95100000Y-70475500D03*
%TO.N,/PGD*%
X95500000Y-71725000D03*
%TO.N,+5V*%
X95100000Y-78250000D03*
%TO.N,GND*%
X89750000Y-77550000D03*
%TO.N,/MCLR*%
X91050000Y-69700000D03*
%TO.N,+5V*%
X89450000Y-71050000D03*
%TO.N,Net-(C4-Pad2)*%
X94250000Y-73050000D03*
%TD*%
D19*
%TO.N,/RB7*%
X97250000Y-74870000D02*
X98500000Y-73620000D01*
X97250000Y-76650000D02*
X97250000Y-74870000D01*
X97400000Y-76800000D02*
X97250000Y-76650000D01*
X97400000Y-78500000D02*
X97400000Y-76800000D01*
X97000000Y-78900000D02*
X97400000Y-78500000D01*
X94800000Y-78900000D02*
X97000000Y-78900000D01*
X94574500Y-78674500D02*
X94800000Y-78900000D01*
X87750000Y-78674500D02*
X94574500Y-78674500D01*
%TO.N,/PGD*%
X96900000Y-73125000D02*
X95500000Y-71725000D01*
X96900000Y-78350000D02*
X96900000Y-73125000D01*
%TO.N,Net-(U1-Pad6)*%
X90950000Y-67650000D02*
X90950000Y-65800000D01*
X90450000Y-68150000D02*
X90950000Y-67650000D01*
%TO.N,Net-(R2-Pad2)*%
X93500000Y-65950000D02*
X93000000Y-65950000D01*
X93000000Y-65950000D02*
X92850000Y-65800000D01*
%TO.N,/PGD*%
X93540280Y-67983511D02*
X92562121Y-67005352D01*
X94033511Y-67983511D02*
X93540280Y-67983511D01*
%TO.N,+5V*%
X89650000Y-71250000D02*
X89450000Y-71050000D01*
%TO.N,Net-(U1-Pad6)*%
X87200000Y-71726414D02*
X89926414Y-69000000D01*
X87200000Y-71800000D02*
X87200000Y-71726414D01*
X87100000Y-71800000D02*
X87200000Y-71800000D01*
X89926414Y-69000000D02*
X90200000Y-69000000D01*
%TO.N,Net-(U1-Pad7)*%
X94825500Y-70750000D02*
X95100000Y-70475500D01*
X94150000Y-70750000D02*
X94825500Y-70750000D01*
X93200000Y-69800000D02*
X94150000Y-70750000D01*
X93200000Y-68350000D02*
X93200000Y-69800000D01*
X92850000Y-68000000D02*
X93200000Y-68350000D01*
X91200000Y-68000000D02*
X92850000Y-68000000D01*
X90400000Y-69300000D02*
X90850000Y-68850000D01*
X90850000Y-68850000D02*
X90850000Y-68350000D01*
X90850000Y-68350000D02*
X91200000Y-68000000D01*
X88600000Y-71150000D02*
X88600000Y-70750000D01*
X88600000Y-70750000D02*
X90050000Y-69300000D01*
X86800000Y-72950000D02*
X88600000Y-71150000D01*
X90050000Y-69300000D02*
X90400000Y-69300000D01*
X86800000Y-74750000D02*
X86800000Y-72950000D01*
%TO.N,+5V*%
X87500000Y-70350000D02*
X86850000Y-70350000D01*
X86850000Y-70350000D02*
X86474825Y-69974825D01*
%TO.N,/MCLR*%
X90100000Y-69700000D02*
X91050000Y-69700000D01*
X88900000Y-71500000D02*
X88900000Y-70900000D01*
X87400000Y-73000000D02*
X88900000Y-71500000D01*
X88900000Y-70900000D02*
X90100000Y-69700000D01*
%TO.N,+5V*%
X86474825Y-69974825D02*
X86474825Y-69374825D01*
X86825500Y-69024150D02*
X86474825Y-69374825D01*
X86825500Y-66725166D02*
X86825500Y-69024150D01*
%TO.N,GND*%
X92650000Y-72750000D02*
X93950000Y-71450000D01*
X92650000Y-73050000D02*
X92650000Y-72750000D01*
%TO.N,/PGC*%
X96350000Y-79500000D02*
X95550000Y-80300000D01*
X95550000Y-80300000D02*
X95500000Y-80350000D01*
X96350000Y-73225000D02*
X96350000Y-78100000D01*
X95500000Y-80350000D02*
X93450000Y-80350000D01*
X95500000Y-72375000D02*
X96350000Y-73225000D01*
%TO.N,/PGD*%
X92037500Y-84762500D02*
X90700000Y-84762500D01*
X97050000Y-79750000D02*
X92037500Y-84762500D01*
%TO.N,GND*%
X95700000Y-77450000D02*
X95550000Y-77600000D01*
X95700000Y-77350000D02*
X95700000Y-77450000D01*
X94925000Y-75100000D02*
X95700000Y-75875000D01*
X94700000Y-75100000D02*
X94925000Y-75100000D01*
X95700000Y-75875000D02*
X95700000Y-77350000D01*
%TO.N,+5V*%
X87700000Y-73950000D02*
X87700000Y-75126726D01*
X86666726Y-76160000D02*
X85500000Y-76160000D01*
X88600000Y-73050000D02*
X87700000Y-73950000D01*
X87700000Y-75126726D02*
X86666726Y-76160000D01*
X89650000Y-73050000D02*
X88600000Y-73050000D01*
%TO.N,Net-(U1-Pad6)*%
X90450000Y-68750000D02*
X90450000Y-68150000D01*
X90200000Y-69000000D02*
X90450000Y-68750000D01*
%TO.N,/Crystal2*%
X90750000Y-74350000D02*
X90750000Y-74800000D01*
X90750000Y-74800000D02*
X91050000Y-75100000D01*
%TO.N,/Cyrstal1*%
X92900000Y-77400000D02*
X92900000Y-76550000D01*
X92900000Y-76550000D02*
X92750000Y-76400000D01*
%TO.N,Net-(U1-Pad14)*%
X87250000Y-69200000D02*
X87250000Y-66250000D01*
X87350000Y-66250000D02*
X87400000Y-66300000D01*
X87250000Y-66250000D02*
X87350000Y-66250000D01*
%TO.N,/PGD*%
X94933511Y-67983511D02*
X95539511Y-68589511D01*
X94033511Y-67983511D02*
X94933511Y-67983511D01*
X95539511Y-68589511D02*
X95539511Y-71685489D01*
X95539511Y-71685489D02*
X95500000Y-71725000D01*
%TO.N,+5V*%
X87590000Y-78250000D02*
X85500000Y-76160000D01*
X95100000Y-78250000D02*
X87590000Y-78250000D01*
%TO.N,GND*%
X89750000Y-77550000D02*
X89750000Y-77250000D01*
X89750000Y-77250000D02*
X89200000Y-76700000D01*
%TO.N,/MCLR*%
X91350000Y-69700000D02*
X91950000Y-69100000D01*
X91050000Y-69700000D02*
X91350000Y-69700000D01*
%TO.N,+5V*%
X89650000Y-73050000D02*
X89650000Y-71250000D01*
%TO.N,/Crystal2*%
X91050000Y-75100000D02*
X89200000Y-75100000D01*
%TO.N,/Cyrstal1*%
X94400000Y-76400000D02*
X94700000Y-76700000D01*
X92750000Y-76400000D02*
X94400000Y-76400000D01*
%TO.N,GND*%
X91250000Y-73050000D02*
X92650000Y-73050000D01*
X92750000Y-73150000D02*
X92650000Y-73050000D01*
X92750000Y-75100000D02*
X92750000Y-73150000D01*
X91050000Y-76400000D02*
X89500000Y-76400000D01*
X89500000Y-76400000D02*
X89200000Y-76700000D01*
X92500978Y-75100000D02*
X92750000Y-75100000D01*
X91200978Y-76400000D02*
X92500978Y-75100000D01*
X91050000Y-76400000D02*
X91200978Y-76400000D01*
X94700000Y-75100000D02*
X92750000Y-75100000D01*
%TD*%
%TA.AperFunction,Conductor*%
%TO.N,GND*%
G36*
X87920515Y-75835570D02*
G01*
X87977351Y-75878117D01*
X88002162Y-75944637D01*
X87994465Y-75997856D01*
X87966522Y-76072394D01*
X87962895Y-76087649D01*
X87957369Y-76138514D01*
X87957000Y-76145328D01*
X87957000Y-76427885D01*
X87961475Y-76443124D01*
X87962865Y-76444329D01*
X87970548Y-76446000D01*
X89328000Y-76446000D01*
X89396121Y-76466002D01*
X89442614Y-76519658D01*
X89454000Y-76572000D01*
X89454000Y-76828000D01*
X89433998Y-76896121D01*
X89380342Y-76942614D01*
X89328000Y-76954000D01*
X87975116Y-76954000D01*
X87959877Y-76958475D01*
X87958672Y-76959865D01*
X87957001Y-76967548D01*
X87957001Y-77254669D01*
X87957371Y-77261490D01*
X87962895Y-77312352D01*
X87966521Y-77327604D01*
X88011676Y-77448054D01*
X88020214Y-77463648D01*
X88021179Y-77464936D01*
X88021738Y-77466432D01*
X88024522Y-77471517D01*
X88023788Y-77471919D01*
X88046026Y-77531443D01*
X88030972Y-77600825D01*
X87980797Y-77651055D01*
X87920352Y-77666500D01*
X87883883Y-77666500D01*
X87815762Y-77646498D01*
X87794788Y-77629595D01*
X86991229Y-76826036D01*
X86957203Y-76763724D01*
X86962268Y-76692909D01*
X87003620Y-76636979D01*
X87076333Y-76581184D01*
X87076337Y-76581180D01*
X87082883Y-76576157D01*
X87101345Y-76552097D01*
X87112212Y-76539707D01*
X87787388Y-75864531D01*
X87849700Y-75830505D01*
X87920515Y-75835570D01*
G37*
%TD.AperFunction*%
%TA.AperFunction,Conductor*%
G36*
X91246121Y-76166002D02*
G01*
X91292614Y-76219658D01*
X91304000Y-76272000D01*
X91304000Y-77389884D01*
X91308475Y-77405123D01*
X91309865Y-77406328D01*
X91317548Y-77407999D01*
X91694669Y-77407999D01*
X91701490Y-77407629D01*
X91752352Y-77402105D01*
X91767606Y-77398478D01*
X91855059Y-77365694D01*
X91925866Y-77360511D01*
X91943517Y-77365694D01*
X92032282Y-77398971D01*
X92032288Y-77398973D01*
X92039684Y-77401745D01*
X92047535Y-77402598D01*
X92047540Y-77402599D01*
X92081872Y-77406328D01*
X92088611Y-77407060D01*
X92154173Y-77434302D01*
X92194600Y-77492664D01*
X92200244Y-77518508D01*
X92201146Y-77526685D01*
X92188734Y-77596588D01*
X92140499Y-77648684D01*
X92075906Y-77666500D01*
X90479648Y-77666500D01*
X90411527Y-77646498D01*
X90365034Y-77592842D01*
X90354930Y-77522568D01*
X90378818Y-77464940D01*
X90383689Y-77458440D01*
X90440547Y-77415922D01*
X90484519Y-77408000D01*
X90777885Y-77408000D01*
X90793124Y-77403525D01*
X90794329Y-77402135D01*
X90796000Y-77394452D01*
X90796000Y-76272000D01*
X90816002Y-76203879D01*
X90869658Y-76157386D01*
X90922000Y-76146000D01*
X91178000Y-76146000D01*
X91246121Y-76166002D01*
G37*
%TD.AperFunction*%
%TA.AperFunction,Conductor*%
G36*
X92846121Y-72816002D02*
G01*
X92892614Y-72869658D01*
X92904000Y-72922000D01*
X92904000Y-74033885D01*
X92908475Y-74049124D01*
X92915075Y-74054843D01*
X92967094Y-74083247D01*
X93001120Y-74145559D01*
X93004000Y-74172344D01*
X93004000Y-74827885D01*
X93008475Y-74843124D01*
X93009865Y-74844329D01*
X93017548Y-74846000D01*
X94828000Y-74846000D01*
X94896121Y-74866002D01*
X94942614Y-74919658D01*
X94954000Y-74972000D01*
X94954000Y-75228000D01*
X94933998Y-75296121D01*
X94880342Y-75342614D01*
X94828000Y-75354000D01*
X92622000Y-75354000D01*
X92553879Y-75333998D01*
X92507386Y-75280342D01*
X92496000Y-75228000D01*
X92496000Y-74351115D01*
X92491525Y-74335876D01*
X92484925Y-74330157D01*
X92432906Y-74301753D01*
X92398880Y-74239441D01*
X92396000Y-74212656D01*
X92396000Y-73322115D01*
X92391525Y-73306876D01*
X92390135Y-73305671D01*
X92382452Y-73304000D01*
X91122000Y-73304000D01*
X91053879Y-73283998D01*
X91007386Y-73230342D01*
X90996000Y-73178000D01*
X90996000Y-72922000D01*
X91016002Y-72853879D01*
X91069658Y-72807386D01*
X91122000Y-72796000D01*
X92778000Y-72796000D01*
X92846121Y-72816002D01*
G37*
%TD.AperFunction*%
%TA.AperFunction,Conductor*%
G36*
X93392012Y-70817659D02*
G01*
X93398595Y-70823788D01*
X93704514Y-71129707D01*
X93715381Y-71142097D01*
X93733843Y-71166157D01*
X93740389Y-71171180D01*
X93839772Y-71247439D01*
X93849178Y-71254657D01*
X93849182Y-71254659D01*
X93855733Y-71259686D01*
X93997676Y-71318481D01*
X94150000Y-71338535D01*
X94158188Y-71337457D01*
X94180056Y-71334578D01*
X94196503Y-71333500D01*
X94707793Y-71333500D01*
X94775914Y-71353502D01*
X94822407Y-71407158D01*
X94832511Y-71477432D01*
X94825186Y-71505269D01*
X94811479Y-71540426D01*
X94811478Y-71540430D01*
X94808718Y-71547509D01*
X94807727Y-71555040D01*
X94807726Y-71555042D01*
X94789044Y-71696947D01*
X94760321Y-71761874D01*
X94701056Y-71800965D01*
X94664122Y-71806500D01*
X93691866Y-71806500D01*
X93629684Y-71813255D01*
X93493516Y-71864302D01*
X93422711Y-71869485D01*
X93405058Y-71864302D01*
X93277606Y-71816522D01*
X93254669Y-71811068D01*
X93255371Y-71808117D01*
X93202906Y-71786318D01*
X93162479Y-71727956D01*
X93160023Y-71657002D01*
X93164093Y-71644067D01*
X93173971Y-71617718D01*
X93173973Y-71617712D01*
X93176745Y-71610316D01*
X93183500Y-71548134D01*
X93183500Y-70912883D01*
X93203502Y-70844762D01*
X93257158Y-70798269D01*
X93327432Y-70788165D01*
X93392012Y-70817659D01*
G37*
%TD.AperFunction*%
%TD*%
M02*
