%TF.GenerationSoftware,KiCad,Pcbnew,(6.0.2)*%
%TF.CreationDate,2022-12-01T20:05:35+01:00*%
%TF.ProjectId,nightUSB,6e696768-7455-4534-922e-6b696361645f,rev?*%
%TF.SameCoordinates,Original*%
%TF.FileFunction,Copper,L1,Top*%
%TF.FilePolarity,Positive*%
%FSLAX46Y46*%
G04 Gerber Fmt 4.6, Leading zero omitted, Abs format (unit mm)*
G04 Created by KiCad (PCBNEW (6.0.2)) date 2022-12-01 20:05:35*
%MOMM*%
%LPD*%
G01*
G04 APERTURE LIST*
G04 Aperture macros list*
%AMRoundRect*
0 Rectangle with rounded corners*
0 $1 Rounding radius*
0 $2 $3 $4 $5 $6 $7 $8 $9 X,Y pos of 4 corners*
0 Add a 4 corners polygon primitive as box body*
4,1,4,$2,$3,$4,$5,$6,$7,$8,$9,$2,$3,0*
0 Add four circle primitives for the rounded corners*
1,1,$1+$1,$2,$3*
1,1,$1+$1,$4,$5*
1,1,$1+$1,$6,$7*
1,1,$1+$1,$8,$9*
0 Add four rect primitives between the rounded corners*
20,1,$1+$1,$2,$3,$4,$5,0*
20,1,$1+$1,$4,$5,$6,$7,0*
20,1,$1+$1,$6,$7,$8,$9,0*
20,1,$1+$1,$8,$9,$2,$3,0*%
G04 Aperture macros list end*
%TA.AperFunction,SMDPad,CuDef*%
%ADD10R,1.000000X1.450000*%
%TD*%
%TA.AperFunction,ComponentPad*%
%ADD11C,1.650000*%
%TD*%
%TA.AperFunction,ComponentPad*%
%ADD12R,1.650000X1.650000*%
%TD*%
%TA.AperFunction,SMDPad,CuDef*%
%ADD13C,0.889000*%
%TD*%
%TA.AperFunction,ComponentPad*%
%ADD14C,1.550000*%
%TD*%
%TA.AperFunction,SMDPad,CuDef*%
%ADD15R,1.000000X0.500000*%
%TD*%
%TA.AperFunction,SMDPad,CuDef*%
%ADD16RoundRect,0.125000X-0.825000X-0.125000X0.825000X-0.125000X0.825000X0.125000X-0.825000X0.125000X0*%
%TD*%
%TA.AperFunction,ConnectorPad*%
%ADD17R,1.900000X8.000000*%
%TD*%
%TA.AperFunction,ConnectorPad*%
%ADD18R,2.000000X7.500000*%
%TD*%
%TA.AperFunction,ViaPad*%
%ADD19C,0.400000*%
%TD*%
%TA.AperFunction,Conductor*%
%ADD20C,0.150000*%
%TD*%
G04 APERTURE END LIST*
D10*
%TO.P,R3,1*%
%TO.N,Net-(U1-Pad7)*%
X96450000Y-65000000D03*
%TO.P,R3,2*%
%TO.N,Net-(R3-Pad2)*%
X94550000Y-65000000D03*
%TD*%
D11*
%TO.P,J3,5,5*%
%TO.N,GND*%
X98500000Y-76160000D03*
%TO.P,J3,4,4*%
%TO.N,/RB7*%
X98500000Y-73620000D03*
%TO.P,J3,3,3*%
%TO.N,/RB6*%
X98500000Y-71080000D03*
%TO.P,J3,2,2*%
%TO.N,/RB5*%
X98500000Y-68540000D03*
D12*
%TO.P,J3,1,1*%
%TO.N,/RB4*%
X98500000Y-66000000D03*
%TD*%
D13*
%TO.P,J1,1,-MCLR/VPP*%
%TO.N,/MCLR*%
X90730000Y-68635000D03*
%TO.P,J1,2,VDD*%
%TO.N,+5V*%
X90730000Y-67365000D03*
%TO.P,J1,3,GND*%
%TO.N,GND*%
X92000000Y-68635000D03*
%TO.P,J1,4,PGD_(ICSPDAT)*%
%TO.N,/PGD*%
X92000000Y-67365000D03*
%TO.P,J1,5,PGC_(ICSPCLK)*%
%TO.N,/PGC*%
X93270000Y-68635000D03*
%TO.P,J1,6,UNUSED/LVP*%
%TO.N,unconnected-(J1-Pad6)*%
X93270000Y-67365000D03*
D14*
%TO.P,J1,7*%
%TO.N,N/C*%
X89460000Y-68000000D03*
%TO.P,J1,8*%
X94540000Y-66984000D03*
%TO.P,J1,9*%
X94540000Y-69016000D03*
%TD*%
D15*
%TO.P,LED1,1,K_RED*%
%TO.N,Net-(LED1-Pad1)*%
X90950000Y-64600000D03*
%TO.P,LED1,2,K_GREEN*%
%TO.N,Net-(R3-Pad2)*%
X93050000Y-64600000D03*
%TO.P,LED1,3,COM*%
%TO.N,+5V*%
X90950000Y-65400000D03*
%TO.P,LED1,4,K_BLUE*%
%TO.N,Net-(R2-Pad2)*%
X93050000Y-65400000D03*
%TD*%
D10*
%TO.P,R4,1*%
%TO.N,Net-(U1-Pad14)*%
X87550000Y-65000000D03*
%TO.P,R4,2*%
%TO.N,Net-(LED1-Pad1)*%
X89450000Y-65000000D03*
%TD*%
D16*
%TO.P,U1,20,VSS*%
%TO.N,GND*%
X95500000Y-71075000D03*
%TO.P,U1,19,RA0/IOCA0/D+/PGD*%
%TO.N,/PGD*%
X95500000Y-71725000D03*
%TO.P,U1,18,RA1/IOCA1/D-/PGC*%
%TO.N,/PGC*%
X95500000Y-72375000D03*
%TO.P,U1,17,VUSB*%
%TO.N,Net-(C4-Pad2)*%
X95500000Y-73025000D03*
%TO.P,U1,16,INT0/C12IN+/VREF+/AN4/RC0*%
%TO.N,/RC0*%
X95500000Y-73675000D03*
%TO.P,U1,15,INT1/C12IN1-/VREF-AN5/RC1*%
%TO.N,/RC1*%
X95500000Y-74325000D03*
%TO.P,U1,14,INT2/CVRef/C12IN2-/P1D/AN6/RC2*%
%TO.N,Net-(U1-Pad14)*%
X95500000Y-74975000D03*
%TO.P,U1,13,RB4/IOCB4/AN10/SDI/SDA*%
%TO.N,/RB4*%
X95500000Y-75625000D03*
%TO.P,U1,12,RB5/IOCB5/AN11/RX/DT*%
%TO.N,/RB5*%
X95500000Y-76275000D03*
%TO.P,U1,11,RB6/IOCB6/SCK/SCL*%
%TO.N,/RB6*%
X95500000Y-76925000D03*
%TO.P,U1,10,RB7/IOCB7/TX/CK*%
%TO.N,/RB7*%
X88500000Y-76925000D03*
%TO.P,U1,9,T1OSCO/SDO/AN9/RC7*%
%TO.N,/RC7*%
X88500000Y-76275000D03*
%TO.P,U1,8,T1OSCI/T13CKI/SS/AN8/RC6*%
%TO.N,/RC6*%
X88500000Y-75625000D03*
%TO.P,U1,7,PGM/C12IN3-/P1C/AN7/RC3*%
%TO.N,Net-(U1-Pad7)*%
X88500000Y-74975000D03*
%TO.P,U1,6,SRQ/C12OUT/P1B/RC4*%
%TO.N,Net-(U1-Pad6)*%
X88500000Y-74325000D03*
%TO.P,U1,5,T0CKI/CCP1/P1A/RC5*%
%TO.N,unconnected-(U1-Pad5)*%
X88500000Y-73675000D03*
%TO.P,U1,4,RA3/IOCA3/~{MCLR}/Vpp*%
%TO.N,/MCLR*%
X88500000Y-73025000D03*
%TO.P,U1,3,RA4/IOCA3/AN3/OSC2/CLKOUT*%
%TO.N,/Cyrstal1*%
X88500000Y-72375000D03*
%TO.P,U1,2,RA5/IOCA5/OSC1/CLKIN*%
%TO.N,/Crystal2*%
X88500000Y-71725000D03*
%TO.P,U1,1,VDD*%
%TO.N,+5V*%
X88500000Y-71075000D03*
%TD*%
D11*
%TO.P,J4,5,5*%
%TO.N,+5V*%
X85500000Y-76160000D03*
%TO.P,J4,4,4*%
%TO.N,/RC7*%
X85500000Y-73620000D03*
%TO.P,J4,3,3*%
%TO.N,/RC6*%
X85500000Y-71080000D03*
%TO.P,J4,2,2*%
%TO.N,/RC1*%
X85500000Y-68540000D03*
D12*
%TO.P,J4,1,1*%
%TO.N,/RC0*%
X85500000Y-66000000D03*
%TD*%
D17*
%TO.P,J2,1,VBUS*%
%TO.N,+5V*%
X95810000Y-85012500D03*
D18*
%TO.P,J2,2,D-*%
%TO.N,/PGC*%
X93300000Y-84762500D03*
%TO.P,J2,3,D+*%
%TO.N,/PGD*%
X90700000Y-84762500D03*
D17*
%TO.P,J2,4,GND*%
%TO.N,GND*%
X88190000Y-85012500D03*
%TD*%
D19*
%TO.N,/PGD*%
X96900000Y-78350000D03*
%TO.N,Net-(R2-Pad2)*%
X93500000Y-65950000D03*
%TO.N,/PGD*%
X92562121Y-67005352D03*
%TO.N,Net-(U1-Pad6)*%
X87100000Y-71800000D03*
%TO.N,+5V*%
X87500000Y-70350000D03*
%TO.N,/MCLR*%
X87400000Y-73000000D03*
%TO.N,+5V*%
X86825500Y-66725166D03*
%TO.N,GND*%
X93950000Y-71450000D03*
%TO.N,/PGC*%
X93450000Y-80350000D03*
X96350000Y-79500000D03*
X96350000Y-78100000D03*
X95500000Y-72375000D03*
%TO.N,/PGD*%
X90700000Y-84762500D03*
X97050000Y-79750000D03*
%TO.N,GND*%
X95550000Y-77600000D03*
%TO.N,Net-(U1-Pad7)*%
X86800000Y-74750000D03*
%TO.N,/Crystal2*%
X90750000Y-74350000D03*
%TO.N,/Cyrstal1*%
X92900000Y-77400000D03*
%TO.N,Net-(U1-Pad14)*%
X87400000Y-66300000D03*
X87250000Y-69200000D03*
%TO.N,GND*%
X92650000Y-73050000D03*
%TO.N,/RB7*%
X87750000Y-78674500D03*
%TO.N,Net-(U1-Pad7)*%
X95100000Y-70475500D03*
%TO.N,/PGD*%
X95500000Y-71725000D03*
%TO.N,+5V*%
X95100000Y-78250000D03*
%TO.N,GND*%
X89750000Y-77550000D03*
%TO.N,/MCLR*%
X91050000Y-69700000D03*
%TO.N,+5V*%
X89450000Y-71050000D03*
%TO.N,Net-(C4-Pad2)*%
X94250000Y-73050000D03*
%TD*%
D20*
%TO.N,/PGD*%
X97050000Y-78500000D02*
X96900000Y-78350000D01*
X97050000Y-79750000D02*
X97050000Y-78500000D01*
%TO.N,Net-(R2-Pad2)*%
X93500000Y-65850000D02*
X93500000Y-65950000D01*
X93400000Y-65750000D02*
X93500000Y-65850000D01*
%TO.N,/PGD*%
X92359648Y-67005352D02*
X92000000Y-67365000D01*
X92562121Y-67005352D02*
X92359648Y-67005352D01*
%TO.N,Net-(R2-Pad2)*%
X93400000Y-65750000D02*
X93050000Y-65400000D01*
%TO.N,+5V*%
X89425000Y-71075000D02*
X89450000Y-71050000D01*
X88500000Y-71075000D02*
X89425000Y-71075000D01*
%TO.N,/RC1*%
X91400000Y-73150000D02*
X91400000Y-71323586D01*
%TO.N,Net-(U1-Pad6)*%
X87525000Y-74325000D02*
X88500000Y-74325000D01*
X86950000Y-73750000D02*
X87525000Y-74325000D01*
X86950000Y-71950000D02*
X86950000Y-73750000D01*
X87100000Y-71800000D02*
X86950000Y-71950000D01*
%TO.N,+5V*%
X87500000Y-70450000D02*
X87500000Y-70350000D01*
X88125000Y-71075000D02*
X87500000Y-70450000D01*
X88500000Y-71075000D02*
X88125000Y-71075000D01*
%TO.N,/MCLR*%
X87425000Y-73025000D02*
X87400000Y-73000000D01*
X88500000Y-73025000D02*
X87425000Y-73025000D01*
%TO.N,+5V*%
X90165000Y-66800000D02*
X86900334Y-66800000D01*
X90730000Y-67365000D02*
X90165000Y-66800000D01*
%TO.N,GND*%
X93950000Y-71450000D02*
X94325000Y-71075000D01*
X94325000Y-71075000D02*
X95500000Y-71075000D01*
%TO.N,/PGC*%
X93800000Y-72450000D02*
X93270000Y-71920000D01*
X93270000Y-71920000D02*
X93270000Y-68635000D01*
X95425000Y-72450000D02*
X93800000Y-72450000D01*
X95500000Y-72375000D02*
X95425000Y-72450000D01*
X93300000Y-80500000D02*
X93300000Y-84762500D01*
X93450000Y-80350000D02*
X93300000Y-80500000D01*
X96350000Y-78100000D02*
X96350000Y-79500000D01*
%TO.N,GND*%
X97060000Y-77600000D02*
X98500000Y-76160000D01*
X95550000Y-77600000D02*
X97060000Y-77600000D01*
%TO.N,Net-(U1-Pad7)*%
X87025000Y-74975000D02*
X86800000Y-74750000D01*
X88500000Y-74975000D02*
X87025000Y-74975000D01*
%TO.N,/Crystal2*%
X90750000Y-72900000D02*
X90750000Y-74350000D01*
X89575000Y-71725000D02*
X90750000Y-72900000D01*
X88500000Y-71725000D02*
X89575000Y-71725000D01*
%TO.N,/Cyrstal1*%
X90250000Y-74750000D02*
X92900000Y-77400000D01*
X90250000Y-74250000D02*
X90250000Y-74750000D01*
X90100000Y-72950000D02*
X90250000Y-73100000D01*
X90250000Y-73100000D02*
X90250000Y-74250000D01*
X89525000Y-72375000D02*
X90100000Y-72950000D01*
X88500000Y-72375000D02*
X89525000Y-72375000D01*
%TO.N,Net-(U1-Pad14)*%
X87400000Y-65150000D02*
X87550000Y-65000000D01*
X87400000Y-66300000D02*
X87400000Y-65150000D01*
X87750000Y-69200000D02*
X87250000Y-69200000D01*
X87800000Y-69250000D02*
X87750000Y-69200000D01*
X88749520Y-70199520D02*
X87800000Y-69250000D01*
X89700000Y-70199520D02*
X88749520Y-70199520D01*
X89799520Y-70199520D02*
X89700000Y-70199520D01*
X91050000Y-71450000D02*
X89799520Y-70199520D01*
X91050000Y-73250000D02*
X91050000Y-71450000D01*
X92775000Y-74975000D02*
X91050000Y-73250000D01*
X95500000Y-74975000D02*
X92775000Y-74975000D01*
%TO.N,/RC1*%
X89976414Y-69900000D02*
X88950000Y-69900000D01*
X91400000Y-71323586D02*
X89976414Y-69900000D01*
X92575000Y-74325000D02*
X91400000Y-73150000D01*
X87590000Y-68540000D02*
X85500000Y-68540000D01*
X95500000Y-74325000D02*
X92575000Y-74325000D01*
X88950000Y-69900000D02*
X87590000Y-68540000D01*
%TO.N,/RC0*%
X92425000Y-73675000D02*
X95500000Y-73675000D01*
X90100000Y-69600000D02*
X91700000Y-71200000D01*
X89100000Y-69600000D02*
X90100000Y-69600000D01*
X91700000Y-72950000D02*
X92425000Y-73675000D01*
X85500000Y-66000000D02*
X89100000Y-69600000D01*
X91700000Y-71200000D02*
X91700000Y-72950000D01*
%TO.N,GND*%
X92000000Y-72400000D02*
X92650000Y-73050000D01*
X92000000Y-68635000D02*
X92000000Y-72400000D01*
%TO.N,/RB7*%
X88500000Y-77924500D02*
X87750000Y-78674500D01*
X88500000Y-76925000D02*
X88500000Y-77924500D01*
%TO.N,Net-(U1-Pad7)*%
X96450000Y-69650000D02*
X96450000Y-65000000D01*
X95624500Y-70475500D02*
X96450000Y-69650000D01*
X95100000Y-70475500D02*
X95624500Y-70475500D01*
%TO.N,/RC6*%
X86298910Y-74301090D02*
X86600000Y-74000000D01*
X87705705Y-75625000D02*
X87680705Y-75650000D01*
X87680705Y-75650000D02*
X86897820Y-75650000D01*
X86298910Y-75051090D02*
X86298910Y-74301090D01*
X86600000Y-74000000D02*
X86600000Y-72180000D01*
X86600000Y-72180000D02*
X85500000Y-71080000D01*
X86897820Y-75650000D02*
X86298910Y-75051090D01*
X88500000Y-75625000D02*
X87705705Y-75625000D01*
%TO.N,/RC7*%
X86600000Y-76000000D02*
X86875000Y-76275000D01*
X85824234Y-75000000D02*
X86600000Y-75775766D01*
X86600000Y-75775766D02*
X86600000Y-76000000D01*
X85650000Y-75000000D02*
X85824234Y-75000000D01*
X86875000Y-76275000D02*
X88500000Y-76275000D01*
X85500000Y-73620000D02*
X85500000Y-74850000D01*
X85500000Y-74850000D02*
X85650000Y-75000000D01*
%TO.N,+5V*%
X95810000Y-78960000D02*
X95100000Y-78250000D01*
X95810000Y-85012500D02*
X95810000Y-78960000D01*
%TO.N,GND*%
X88190000Y-79110000D02*
X89750000Y-77550000D01*
X88190000Y-85012500D02*
X88190000Y-79110000D01*
%TO.N,/RB4*%
X96838207Y-67661793D02*
X96900000Y-67600000D01*
X96900000Y-67600000D02*
X98500000Y-66000000D01*
X96838207Y-75488207D02*
X96838207Y-67661793D01*
X96701414Y-75625000D02*
X96838207Y-75488207D01*
X95500000Y-75625000D02*
X96701414Y-75625000D01*
%TO.N,/RB5*%
X97150969Y-75599031D02*
X97150969Y-69889031D01*
X97150969Y-69889031D02*
X98500000Y-68540000D01*
X96475000Y-76275000D02*
X97150969Y-75599031D01*
X95500000Y-76275000D02*
X96475000Y-76275000D01*
%TO.N,/RB6*%
X96294295Y-76925000D02*
X97450489Y-75768806D01*
X95500000Y-76925000D02*
X96294295Y-76925000D01*
X97450489Y-75768806D02*
X97450489Y-72129511D01*
X97450489Y-72129511D02*
X98500000Y-71080000D01*
%TO.N,/MCLR*%
X90730000Y-69380000D02*
X91050000Y-69700000D01*
X90730000Y-68635000D02*
X90730000Y-69380000D01*
%TO.N,+5V*%
X90730000Y-65620000D02*
X90950000Y-65400000D01*
X90730000Y-67365000D02*
X90730000Y-65620000D01*
%TO.N,Net-(LED1-Pad1)*%
X89850000Y-64600000D02*
X89450000Y-65000000D01*
X90950000Y-64600000D02*
X89850000Y-64600000D01*
%TO.N,Net-(R3-Pad2)*%
X94150000Y-64600000D02*
X94550000Y-65000000D01*
X93050000Y-64600000D02*
X94150000Y-64600000D01*
%TO.N,Net-(C4-Pad2)*%
X94275000Y-73025000D02*
X94250000Y-73050000D01*
X95500000Y-73025000D02*
X94275000Y-73025000D01*
%TD*%
%TA.AperFunction,Conductor*%
%TO.N,GND*%
G36*
X91568424Y-74599621D02*
G01*
X91594362Y-74619555D01*
X92329514Y-75354707D01*
X92340381Y-75367097D01*
X92358843Y-75391157D01*
X92391424Y-75416157D01*
X92480732Y-75484686D01*
X92512093Y-75497676D01*
X92622676Y-75543481D01*
X92736756Y-75558500D01*
X92766811Y-75562457D01*
X92766812Y-75562457D01*
X92775000Y-75563535D01*
X92783188Y-75562457D01*
X92805056Y-75559578D01*
X92821503Y-75558500D01*
X93915500Y-75558500D01*
X93983621Y-75578502D01*
X94030114Y-75632158D01*
X94041500Y-75684499D01*
X94041501Y-75768806D01*
X94041501Y-75813978D01*
X94044326Y-75849889D01*
X94046122Y-75856070D01*
X94063198Y-75914847D01*
X94063198Y-75985153D01*
X94044326Y-76050111D01*
X94043821Y-76056528D01*
X94043821Y-76056530D01*
X94041693Y-76083562D01*
X94041692Y-76083575D01*
X94041500Y-76086021D01*
X94041501Y-76463978D01*
X94044326Y-76499889D01*
X94046122Y-76506070D01*
X94063198Y-76564847D01*
X94063198Y-76635153D01*
X94044326Y-76700111D01*
X94043821Y-76706528D01*
X94043821Y-76706530D01*
X94041693Y-76733562D01*
X94041692Y-76733575D01*
X94041500Y-76736021D01*
X94041501Y-77113978D01*
X94041695Y-77116438D01*
X94041695Y-77116443D01*
X94042757Y-77129938D01*
X94044326Y-77149889D01*
X94088982Y-77303593D01*
X94093016Y-77310414D01*
X94166424Y-77434543D01*
X94166427Y-77434547D01*
X94170458Y-77441363D01*
X94283637Y-77554542D01*
X94290453Y-77558573D01*
X94290457Y-77558576D01*
X94377054Y-77609788D01*
X94421407Y-77636018D01*
X94429017Y-77638229D01*
X94454787Y-77645716D01*
X94514622Y-77683929D01*
X94544299Y-77748426D01*
X94534395Y-77818728D01*
X94522719Y-77839164D01*
X94475382Y-77906517D01*
X94475379Y-77906523D01*
X94471010Y-77912739D01*
X94408718Y-78072509D01*
X94407726Y-78080042D01*
X94407726Y-78080043D01*
X94389463Y-78218768D01*
X94386335Y-78242526D01*
X94395744Y-78327751D01*
X94400986Y-78375229D01*
X94405153Y-78412975D01*
X94464085Y-78574015D01*
X94468322Y-78580321D01*
X94468324Y-78580324D01*
X94512621Y-78646244D01*
X94559730Y-78716349D01*
X94686565Y-78831760D01*
X94837268Y-78913585D01*
X94941359Y-78940893D01*
X94998481Y-78973674D01*
X95189596Y-79164790D01*
X95223621Y-79227102D01*
X95226500Y-79253885D01*
X95226500Y-80378000D01*
X95206498Y-80446121D01*
X95152842Y-80492614D01*
X95100500Y-80504000D01*
X94811866Y-80504000D01*
X94749684Y-80510755D01*
X94624229Y-80557786D01*
X94553423Y-80562969D01*
X94535774Y-80557787D01*
X94410316Y-80510755D01*
X94348134Y-80504000D01*
X94288648Y-80504000D01*
X94220527Y-80483998D01*
X94174034Y-80430342D01*
X94163032Y-80368565D01*
X94163547Y-80364947D01*
X94163617Y-80358272D01*
X94163661Y-80354133D01*
X94163661Y-80354127D01*
X94163704Y-80350000D01*
X94143102Y-80179758D01*
X94082487Y-80019344D01*
X93985357Y-79878019D01*
X93979686Y-79872966D01*
X93862993Y-79768996D01*
X93862990Y-79768994D01*
X93857321Y-79763943D01*
X93849325Y-79759709D01*
X93712481Y-79687254D01*
X93712482Y-79687254D01*
X93705769Y-79683700D01*
X93688196Y-79679286D01*
X93546822Y-79643775D01*
X93546818Y-79643775D01*
X93539451Y-79641924D01*
X93531852Y-79641884D01*
X93531850Y-79641884D01*
X93460394Y-79641510D01*
X93367969Y-79641026D01*
X93360589Y-79642798D01*
X93360587Y-79642798D01*
X93208602Y-79679286D01*
X93208598Y-79679287D01*
X93201223Y-79681058D01*
X93048839Y-79759709D01*
X92919615Y-79872439D01*
X92821010Y-80012739D01*
X92758718Y-80172509D01*
X92757726Y-80180042D01*
X92757726Y-80180043D01*
X92739654Y-80317317D01*
X92736438Y-80333483D01*
X92734679Y-80340048D01*
X92731519Y-80347676D01*
X92730441Y-80355862D01*
X92730441Y-80355863D01*
X92725362Y-80394445D01*
X92696640Y-80459373D01*
X92637375Y-80498465D01*
X92600440Y-80504000D01*
X92251866Y-80504000D01*
X92189684Y-80510755D01*
X92142414Y-80528476D01*
X92061699Y-80558734D01*
X92061696Y-80558736D01*
X92053295Y-80561885D01*
X92052976Y-80561034D01*
X91991151Y-80574555D01*
X91946834Y-80561542D01*
X91946705Y-80561885D01*
X91942019Y-80560128D01*
X91942015Y-80560127D01*
X91938304Y-80558736D01*
X91938301Y-80558734D01*
X91857586Y-80528476D01*
X91810316Y-80510755D01*
X91748134Y-80504000D01*
X89651866Y-80504000D01*
X89589684Y-80510755D01*
X89463517Y-80558053D01*
X89392711Y-80563236D01*
X89375058Y-80558053D01*
X89257606Y-80514022D01*
X89242351Y-80510395D01*
X89191486Y-80504869D01*
X89184672Y-80504500D01*
X88462115Y-80504500D01*
X88446876Y-80508975D01*
X88445671Y-80510365D01*
X88444000Y-80518048D01*
X88444000Y-85140500D01*
X88423998Y-85208621D01*
X88370342Y-85255114D01*
X88318000Y-85266500D01*
X88062000Y-85266500D01*
X87993879Y-85246498D01*
X87947386Y-85192842D01*
X87936000Y-85140500D01*
X87936000Y-80522616D01*
X87931525Y-80507377D01*
X87930135Y-80506172D01*
X87922452Y-80504501D01*
X87195331Y-80504501D01*
X87188510Y-80504871D01*
X87137648Y-80510395D01*
X87122396Y-80514021D01*
X87001946Y-80559176D01*
X86986351Y-80567714D01*
X86884276Y-80644215D01*
X86871715Y-80656776D01*
X86795214Y-80758851D01*
X86786676Y-80774446D01*
X86751982Y-80866992D01*
X86709340Y-80923756D01*
X86642779Y-80948456D01*
X86573430Y-80933249D01*
X86523312Y-80882963D01*
X86508000Y-80822762D01*
X86508000Y-79053208D01*
X86509746Y-79032303D01*
X86512265Y-79017333D01*
X86512265Y-79017328D01*
X86513071Y-79012540D01*
X86513224Y-79000001D01*
X86511114Y-78985267D01*
X86510164Y-78976409D01*
X86509969Y-78973674D01*
X86496464Y-78784841D01*
X86450612Y-78574062D01*
X86449045Y-78569860D01*
X86449043Y-78569854D01*
X86376800Y-78376166D01*
X86375229Y-78371954D01*
X86360883Y-78345680D01*
X86274010Y-78186585D01*
X86271851Y-78182631D01*
X86142582Y-78009947D01*
X85990053Y-77857418D01*
X85817369Y-77728149D01*
X85813410Y-77725987D01*
X85758653Y-77696087D01*
X85708451Y-77645885D01*
X85693360Y-77576511D01*
X85718171Y-77509991D01*
X85775007Y-77467444D01*
X85786428Y-77463793D01*
X85952516Y-77419290D01*
X85952518Y-77419289D01*
X85957826Y-77417867D01*
X85996142Y-77400000D01*
X86164310Y-77321582D01*
X86164315Y-77321579D01*
X86169297Y-77319256D01*
X86173806Y-77316099D01*
X86355921Y-77188581D01*
X86355924Y-77188579D01*
X86360432Y-77185422D01*
X86525422Y-77020432D01*
X86530950Y-77012538D01*
X86611661Y-76897270D01*
X86667118Y-76852942D01*
X86731320Y-76844619D01*
X86875000Y-76863535D01*
X86899055Y-76860368D01*
X86969201Y-76871307D01*
X87022300Y-76918434D01*
X87041500Y-76985289D01*
X87041501Y-77050727D01*
X87041501Y-77113978D01*
X87041695Y-77116438D01*
X87041695Y-77116443D01*
X87042757Y-77129938D01*
X87044326Y-77149889D01*
X87088982Y-77303593D01*
X87093016Y-77310414D01*
X87166424Y-77434543D01*
X87166427Y-77434547D01*
X87170458Y-77441363D01*
X87283637Y-77554542D01*
X87290453Y-77558573D01*
X87290457Y-77558576D01*
X87377054Y-77609788D01*
X87421407Y-77636018D01*
X87429017Y-77638229D01*
X87568928Y-77678878D01*
X87568931Y-77678879D01*
X87575111Y-77680674D01*
X87587762Y-77681670D01*
X87608562Y-77683307D01*
X87608575Y-77683308D01*
X87611021Y-77683500D01*
X87613487Y-77683500D01*
X87615963Y-77683597D01*
X87615917Y-77684763D01*
X87679738Y-77703502D01*
X87726231Y-77757158D01*
X87736335Y-77827432D01*
X87706841Y-77892012D01*
X87700712Y-77898595D01*
X87648109Y-77951198D01*
X87588428Y-77984622D01*
X87508602Y-78003786D01*
X87508598Y-78003787D01*
X87501223Y-78005558D01*
X87348839Y-78084209D01*
X87219615Y-78196939D01*
X87121010Y-78337239D01*
X87107475Y-78371954D01*
X87076808Y-78450612D01*
X87058718Y-78497009D01*
X87057726Y-78504542D01*
X87057726Y-78504543D01*
X87043140Y-78615339D01*
X87036335Y-78667026D01*
X87042345Y-78721459D01*
X87053958Y-78826650D01*
X87055153Y-78837475D01*
X87057762Y-78844606D01*
X87057763Y-78844608D01*
X87065688Y-78866264D01*
X87114085Y-78998515D01*
X87118322Y-79004821D01*
X87118324Y-79004824D01*
X87143763Y-79042681D01*
X87209730Y-79140849D01*
X87336565Y-79256260D01*
X87487268Y-79338085D01*
X87653139Y-79381601D01*
X87740586Y-79382974D01*
X87817003Y-79384175D01*
X87817006Y-79384175D01*
X87824602Y-79384294D01*
X87832006Y-79382598D01*
X87832008Y-79382598D01*
X87894846Y-79368206D01*
X87991759Y-79346010D01*
X88144958Y-79268959D01*
X88150729Y-79264030D01*
X88150732Y-79264028D01*
X88269578Y-79162523D01*
X88275355Y-79157589D01*
X88375424Y-79018330D01*
X88439385Y-78859220D01*
X88441578Y-78843811D01*
X88470977Y-78779187D01*
X88477226Y-78772467D01*
X88879707Y-78369986D01*
X88892098Y-78359118D01*
X88909611Y-78345680D01*
X88916157Y-78340657D01*
X88963069Y-78279520D01*
X89009686Y-78218768D01*
X89041243Y-78142582D01*
X89055527Y-78108098D01*
X89065321Y-78084453D01*
X89068481Y-78076824D01*
X89083500Y-77962744D01*
X89083500Y-77962742D01*
X89088535Y-77924500D01*
X89084578Y-77894444D01*
X89083500Y-77877997D01*
X89083500Y-77809499D01*
X89103502Y-77741378D01*
X89157158Y-77694885D01*
X89209500Y-77683499D01*
X89388978Y-77683499D01*
X89396766Y-77682886D01*
X89418474Y-77681179D01*
X89418477Y-77681178D01*
X89424889Y-77680674D01*
X89558265Y-77641924D01*
X89570983Y-77638229D01*
X89578593Y-77636018D01*
X89622946Y-77609788D01*
X89709543Y-77558576D01*
X89709547Y-77558573D01*
X89716363Y-77554542D01*
X89829542Y-77441363D01*
X89833573Y-77434547D01*
X89833576Y-77434543D01*
X89906984Y-77310414D01*
X89911018Y-77303593D01*
X89930279Y-77237299D01*
X89953878Y-77156072D01*
X89953879Y-77156067D01*
X89955674Y-77149889D01*
X89957244Y-77129938D01*
X89958307Y-77116438D01*
X89958308Y-77116425D01*
X89958500Y-77113979D01*
X89958499Y-76736022D01*
X89957653Y-76725269D01*
X89956179Y-76706528D01*
X89956179Y-76706526D01*
X89955674Y-76700111D01*
X89936802Y-76635153D01*
X89936802Y-76564847D01*
X89953877Y-76506074D01*
X89953878Y-76506070D01*
X89955674Y-76499889D01*
X89956670Y-76487238D01*
X89958307Y-76466438D01*
X89958308Y-76466425D01*
X89958500Y-76463979D01*
X89958499Y-76086022D01*
X89955674Y-76050111D01*
X89936802Y-75985153D01*
X89936802Y-75914847D01*
X89953877Y-75856074D01*
X89953878Y-75856070D01*
X89955674Y-75849889D01*
X89956670Y-75837238D01*
X89958307Y-75816438D01*
X89958308Y-75816425D01*
X89958500Y-75813979D01*
X89958499Y-75587882D01*
X89978501Y-75519762D01*
X90032156Y-75473269D01*
X90102430Y-75463164D01*
X90167011Y-75492657D01*
X90173594Y-75498787D01*
X92170999Y-77496192D01*
X92204406Y-77556211D01*
X92205153Y-77562975D01*
X92264085Y-77724015D01*
X92268322Y-77730321D01*
X92268324Y-77730324D01*
X92294311Y-77768996D01*
X92359730Y-77866349D01*
X92486565Y-77981760D01*
X92637268Y-78063585D01*
X92803139Y-78107101D01*
X92890586Y-78108474D01*
X92967003Y-78109675D01*
X92967006Y-78109675D01*
X92974602Y-78109794D01*
X92982006Y-78108098D01*
X92982008Y-78108098D01*
X93064529Y-78089198D01*
X93141759Y-78071510D01*
X93294958Y-77994459D01*
X93300729Y-77989530D01*
X93300732Y-77989528D01*
X93419578Y-77888023D01*
X93425355Y-77883089D01*
X93525424Y-77743830D01*
X93589385Y-77584720D01*
X93593680Y-77554542D01*
X93612966Y-77419031D01*
X93612966Y-77419027D01*
X93613547Y-77414947D01*
X93613704Y-77400000D01*
X93602037Y-77303593D01*
X93594015Y-77237299D01*
X93594014Y-77237296D01*
X93593102Y-77229758D01*
X93574877Y-77181525D01*
X93535171Y-77076447D01*
X93532487Y-77069344D01*
X93493445Y-77012538D01*
X93439659Y-76934278D01*
X93439658Y-76934276D01*
X93435357Y-76928019D01*
X93403208Y-76899375D01*
X93312993Y-76818996D01*
X93312990Y-76818994D01*
X93307321Y-76813943D01*
X93155769Y-76733700D01*
X93060171Y-76709687D01*
X93001772Y-76676579D01*
X91302097Y-74976904D01*
X91268071Y-74914592D01*
X91273136Y-74843777D01*
X91288870Y-74814283D01*
X91370990Y-74700002D01*
X91370994Y-74699996D01*
X91375424Y-74693830D01*
X91378255Y-74686786D01*
X91378259Y-74686780D01*
X91388360Y-74661653D01*
X91432327Y-74605909D01*
X91499453Y-74582784D01*
X91568424Y-74599621D01*
G37*
%TD.AperFunction*%
%TA.AperFunction,Conductor*%
G36*
X98544032Y-75860924D02*
G01*
X98589095Y-75889885D01*
X98770115Y-76070905D01*
X98804141Y-76133217D01*
X98799076Y-76204032D01*
X98770115Y-76249095D01*
X97766972Y-77252238D01*
X97760542Y-77264013D01*
X97769838Y-77276028D01*
X97826446Y-77315665D01*
X97835941Y-77321148D01*
X98037364Y-77415072D01*
X98047656Y-77418818D01*
X98214209Y-77463445D01*
X98274832Y-77500397D01*
X98305853Y-77564257D01*
X98297425Y-77634752D01*
X98252222Y-77689499D01*
X98241984Y-77695739D01*
X98186590Y-77725987D01*
X98182631Y-77728149D01*
X98009947Y-77857418D01*
X97857418Y-78009947D01*
X97776706Y-78117766D01*
X97719873Y-78160310D01*
X97649057Y-78165376D01*
X97586745Y-78131351D01*
X97557974Y-78086793D01*
X97535171Y-78026447D01*
X97532487Y-78019344D01*
X97467303Y-77924500D01*
X97439659Y-77884278D01*
X97439658Y-77884276D01*
X97435357Y-77878019D01*
X97429686Y-77872966D01*
X97312993Y-77768996D01*
X97312990Y-77768994D01*
X97307321Y-77763943D01*
X97294507Y-77757158D01*
X97179164Y-77696087D01*
X97155769Y-77683700D01*
X97148404Y-77681850D01*
X96996822Y-77643775D01*
X96996818Y-77643775D01*
X96989451Y-77641924D01*
X96981852Y-77641884D01*
X96981850Y-77641884D01*
X96948051Y-77641707D01*
X96880036Y-77621348D01*
X96864895Y-77609788D01*
X96864744Y-77609654D01*
X96853876Y-77599970D01*
X96816320Y-77539723D01*
X96817297Y-77468733D01*
X96831057Y-77442259D01*
X96829542Y-77441363D01*
X96847604Y-77410822D01*
X96911018Y-77303593D01*
X96930279Y-77237299D01*
X96953878Y-77156072D01*
X96953879Y-77156067D01*
X96955674Y-77149889D01*
X96957244Y-77129938D01*
X96982529Y-77063596D01*
X96993761Y-77050727D01*
X97183216Y-76861272D01*
X97245528Y-76827246D01*
X97316343Y-76832311D01*
X97375525Y-76878098D01*
X97384559Y-76891000D01*
X97395036Y-76899375D01*
X97408483Y-76892307D01*
X98410905Y-75889885D01*
X98473217Y-75855859D01*
X98544032Y-75860924D01*
G37*
%TD.AperFunction*%
%TA.AperFunction,Conductor*%
G36*
X92639202Y-69461808D02*
G01*
X92679906Y-69519978D01*
X92686500Y-69560205D01*
X92686500Y-71873497D01*
X92685422Y-71889944D01*
X92681465Y-71920000D01*
X92686500Y-71958244D01*
X92701519Y-72072324D01*
X92760314Y-72214267D01*
X92853843Y-72336157D01*
X92860389Y-72341180D01*
X92877902Y-72354618D01*
X92890293Y-72365486D01*
X93354514Y-72829707D01*
X93365381Y-72842097D01*
X93383843Y-72866157D01*
X93390393Y-72871183D01*
X93395613Y-72876403D01*
X93429640Y-72938714D01*
X93424577Y-73009530D01*
X93382031Y-73066367D01*
X93315512Y-73091179D01*
X93306520Y-73091500D01*
X92718885Y-73091500D01*
X92650764Y-73071498D01*
X92629790Y-73054596D01*
X92320405Y-72745212D01*
X92286380Y-72682899D01*
X92283500Y-72656116D01*
X92283500Y-71246503D01*
X92284578Y-71230056D01*
X92287457Y-71208188D01*
X92288535Y-71200000D01*
X92268481Y-71047676D01*
X92209686Y-70905733D01*
X92139640Y-70814446D01*
X92139637Y-70814443D01*
X92121184Y-70790394D01*
X92121183Y-70790393D01*
X92116157Y-70783843D01*
X92092106Y-70765388D01*
X92079715Y-70754521D01*
X91623003Y-70297809D01*
X91588977Y-70235497D01*
X91594042Y-70164682D01*
X91609775Y-70135190D01*
X91652971Y-70075076D01*
X91670992Y-70049998D01*
X91670993Y-70049997D01*
X91675424Y-70043830D01*
X91739385Y-69884720D01*
X91748315Y-69821977D01*
X91762966Y-69719031D01*
X91762966Y-69719027D01*
X91763547Y-69714947D01*
X91763634Y-69706692D01*
X91784353Y-69638786D01*
X91838496Y-69592862D01*
X91904546Y-69582907D01*
X91973844Y-69591170D01*
X91986093Y-69591427D01*
X92160057Y-69578041D01*
X92172135Y-69575911D01*
X92340181Y-69528992D01*
X92351611Y-69524559D01*
X92503689Y-69447739D01*
X92573511Y-69434879D01*
X92639202Y-69461808D01*
G37*
%TD.AperFunction*%
%TD*%
M02*
