M48
; DRILL file {KiCad (6.0.2)} date Thu Dec  1 20:05:38 2022
; FORMAT={-:-/ absolute / metric / decimal}
; #@! TF.CreationDate,2022-12-01T20:05:38+01:00
; #@! TF.GenerationSoftware,Kicad,Pcbnew,(6.0.2)
; #@! TF.FileFunction,MixedPlating,1,2
FMAT,2
METRIC
; #@! TA.AperFunction,Plated,PTH,ViaDrill
T1C0.200
; #@! TA.AperFunction,Plated,PTH,ComponentDrill
T2C1.067
; #@! TA.AperFunction,Plated,PTH,ComponentDrill
T3C1.100
%
G90
G05
T1
X86.8Y-74.75
X86.825Y-66.725
X87.1Y-71.8
X87.25Y-69.2
X87.4Y-66.3
X87.4Y-73.0
X87.5Y-70.35
X87.75Y-78.674
X89.45Y-71.05
X89.75Y-77.55
X90.7Y-84.763
X90.75Y-74.35
X91.05Y-69.7
X92.562Y-67.005
X92.65Y-73.05
X92.9Y-77.4
X93.45Y-80.35
X93.5Y-65.95
X93.95Y-71.45
X94.25Y-73.05
X95.1Y-70.475
X95.1Y-78.25
X95.5Y-71.725
X95.5Y-72.375
X95.55Y-77.6
X96.35Y-78.1
X96.35Y-79.5
X96.9Y-78.35
X97.05Y-79.75
T2
X89.46Y-68.0
X94.54Y-66.984
X94.54Y-69.016
T3
X85.5Y-66.0
X85.5Y-68.54
X85.5Y-71.08
X85.5Y-73.62
X85.5Y-76.16
X98.5Y-66.0
X98.5Y-68.54
X98.5Y-71.08
X98.5Y-73.62
X98.5Y-76.16
T0
M30
